<?xml version="1.0" encoding="utf-8"?>
<!-- Generator: Adobe Illustrator 25.3.1, SVG Export Plug-In . SVG Version: 6.00 Build 0)  -->
<svg version="1.1" id="Layer_1" xmlns="http://www.w3.org/2000/svg" xmlns:xlink="http://www.w3.org/1999/xlink" x="0px" y="0px"
	 viewBox="0 0 595.1 193.1" style="enable-background:new 0 0 595.1 193.1;" xml:space="preserve">
<style type="text/css">
	.st0{fill:#002B50;}
</style>
<g>
	<path class="st0" d="M320.1,22.5v142h-294v-142H320.1 M332.1,10.5h-318v166h318V10.5L332.1,10.5z"/>
</g>
<g>
	<g>
		<path class="st0" d="M79.8,115.4c-4.4,0-9-1.2-12.3-2.5l0.1-0.3C71.5,114.2,76.1,115.3,79.8,115.4c7.1-0.1,11.7-4.3,11.7-10.8
			c0-7.9-7.8-10.2-12.5-11.6c-8.4-2.6-11.2-5.1-11.2-10.5c0-6.9,4.9-9.5,9-10.4c-3.9,1.5-6.5,5-6.5,9.4c0,7.8,7.5,10.2,12.9,12
			c7.7,2.5,11.2,4.6,11.2,10.7C94.3,114,85.2,115.4,79.8,115.4z M92.6,74.7c-1-0.6-2-1.1-2.9-1.5C90.7,73.7,91.7,74.1,92.6,74.7
			L92.6,74.7z"/>
		<path class="st0" d="M81.4,65.6c-11.2,0-19.6,6.1-19.6,16.9c0,10.9,8.6,14.2,15.5,16.3c4.7,1.4,8.2,2.5,8.2,5.8
			c0,3.7-2.6,4.7-5.6,4.7c-4.6,0-11.7-2.6-15.4-4.9l-4.7,11.4c3.5,2.4,11.9,5.6,20,5.6c12,0,20.6-6,20.6-17.3
			c0-10.9-7.9-14.1-15.3-16.5c-5-1.6-8.8-2.8-8.8-6.2c0-3,2.5-4.2,5.1-4.2c3.7,0,8.3,2.4,12.6,5.5l7.2-9.2
			C96.4,69,89.1,65.6,81.4,65.6L81.4,65.6z"/>
	</g>
	<g>
		<path class="st0" d="M113.4,114.5V72.6h1.9v41.9H113.4z M134.6,95c4.1-3,4.7-7.9,4.7-10.4c0-3.5-0.9-8.7-6-11.4
			c8.3,2,8.3,8.2,8.3,10.5C141.6,87.8,140.2,92.6,134.6,95z"/>
		<path class="st0" d="M127.2,66.6h-19.8v53.9h13.9v-17.9h4.1c13,0,22.1-6.3,22.1-18.9C147.6,72.5,139.9,66.6,127.2,66.6L127.2,66.6
			z M121.3,91.8V77.5h3.9c5.1,0,8,1.5,8,7.1c0,5.6-3.4,7.2-8.8,7.2H121.3L121.3,91.8z"/>
	</g>
	<g>
		<path class="st0" d="M185.2,114.5l-3.1-9.7h0.4l-6.1-21.5l10.8,31.2H185.2z M152.1,114.5l3.2-9.7h0.6l-3.1,9.7H152.1z M165.4,73.5
			l0.3-1h7l0.3,1H165.4z"/>
		<path class="st0" d="M177,66.6h-15.6l-17.5,53.9h13.4l3.6-11.5h16.3l3.6,11.5h14.8L177,66.6L177,66.6z M163.2,98.7l5.6-19.2
			c0.1,0,0.2,0,0.3,0l5.4,19.2H163.2L163.2,98.7z"/>
	</g>
	<g>
		<path class="st0" d="M216,114.8c-10.8-2.5-13.3-12.4-13.3-20.9c0-13.3,5.7-18.9,11.6-21.1c-6.7,3.6-9.2,12.5-9.2,20.3
			C205.1,104.3,209,112,216,114.8z M232.6,75.8c-1.5-1.4-3.1-2.5-4.8-3.3c1.8,0.7,3.5,1.7,5.1,3.1L232.6,75.8z"/>
		<path class="st0" d="M222.1,65.6c-12.1,0-25.4,7.1-25.4,28.4c0,18.1,9.8,27.5,25,27.5c7.5,0,13.3-2.4,19.1-7.7l-7.1-9.1
			c-3.5,3.2-7.2,5.3-11.3,5.3c-7.9,0-11.3-6.6-11.3-16.9c0-10.6,4.3-16,10.4-16c3.9,0,7.1,2.4,10.3,6.7l9.9-7.1
			C236.4,68.7,229.3,65.6,222.1,65.6L222.1,65.6z"/>
	</g>
	<g>
		<polygon class="st0" points="252.6,114.5 252.6,72.6 275.8,72.6 275.8,72.7 254.5,72.7 254.5,92.9 272.8,92.9 272.8,93.1 
			254.5,93.1 254.5,114.3 276.4,114.3 276.4,114.5 		"/>
		<polygon class="st0" points="281.8,66.6 246.6,66.6 246.6,120.5 282.4,120.5 282.4,108.3 260.5,108.3 260.5,99.1 278.8,99.1 
			278.8,86.9 260.5,86.9 260.5,78.7 281.8,78.7 281.8,66.6 		"/>
	</g>
</g>
<g>
	<g>
		<path class="st0" d="M400.3,82.1c0-4.2-2.8-5.4-6.3-5.4h-4.5v11.1h4C398.2,87.8,400.3,85.3,400.3,82.1z"/>
		<path class="st0" d="M394,76.7h-4.5v11.1h4c4.7,0,6.8-2.5,6.8-5.7C400.3,77.9,397.5,76.7,394,76.7L394,76.7z"/>
	</g>
	<g>
		<path class="st0" d="M446.4,103.9c-1.1,0-2-0.1-2.9-2.1c-0.6-1.4-1.4-4-1.4-8.8c0-0.4,0-9.9,3.9-9.9c3.9,0,4,10.6,4,10.7
			C450.1,96.2,449.8,103.9,446.4,103.9z"/>
		<path class="st0" d="M446.1,77.2c-7.3,0-9.9,7.9-9.9,15.9c0,7.5,1.6,16.9,10.2,16.9c7.5,0,9.6-7.9,9.6-16
			C456.1,87.1,454.3,77.2,446.1,77.2L446.1,77.2z"/>
	</g>
	<g>
		<path class="st0" d="M395.5,103.7c0.2,0,0.5,0,0.6,0.1c-0.2,0-0.4,0.1-0.6,0.1V103.7z"/>
		<path class="st0" d="M395.1,97.7h-5.6v12.2h5.2c5.7,0,7.6-2.4,7.6-6.3C402.3,99.5,399.7,97.7,395.1,97.7L395.1,97.7z"/>
	</g>
	<g>
		<path class="st0" d="M326.8,170.5v-154h246v154H326.8z M420.7,114.2c5,8.5,13.6,13.2,25.1,13.2c5.4,0,10.2-1.1,14.3-3.1l-1.4,2.1
			h30.8l7.6-11.8l7.4,11.8H535l-22.2-34.3l21.4-31.6h-30.3l-6.2,9.9l-6-9.9h-30.5l2.4,3.6c-4.5-3-10.1-4.6-16.6-4.6
			c-13.5,0-22.3,6.8-27,16c-1.4-7-6.8-15.1-23.7-15.1h-26.7v65.9h25.5C407.8,126.5,416.7,122,420.7,114.2z M475.7,101.2
			c0.4-2.4,0.6-4.9,0.6-7.6c0-4.4-0.5-8.4-1.4-12l6.9,10.5L475.7,101.2z"/>
		<path class="st0" d="M566.8,22.5v142h-234v-142H566.8 M420.9,63.9c-4.2-5.2-11.7-9.4-24.6-9.4h-20.7h-12v12v53.9v12h12h19.5
			c12,0,20.3-3.4,25.7-8.4c6.2,6.1,14.7,9.4,25.1,9.4c3.2,0,6.3-0.3,9.1-1h15h16.3h6.6l3.5-5.5l0.7-1.1l0.7,1l3.5,5.6h6.6h16h22.1
			l-12-18.5L520,92.2l12.8-18.9l12.7-18.7h-22.6h-15.6h-6.6l-2.8,4.5l-2.8-4.5h-6.7h-16h-16.4c-2.8-0.6-5.8-1-8.9-1
			c-9.6,0-18.5,3.3-25.1,9.4C421.5,63.3,421.2,63.6,420.9,63.9 M578.8,10.5h-258v166h258V10.5L578.8,10.5z M445.9,121.4
			c-15.1,0-24-9.5-24-27.8c0-20.8,13.3-28,25-28c12.5,0,23.3,7.5,23.3,28C470.3,112,460.5,121.4,445.9,121.4L445.9,121.4z
			 M497.6,81.9l9.6-15.3h15.6l-17.3,25.5l18.4,28.4h-16l-10.7-17l-10.9,17H470l19-28.3l-16.8-25.6h16L497.6,81.9L497.6,81.9z
			 M375.6,120.5V66.6h20.7c9.7,0,18.2,2.8,18.2,13.9c0,4.8-2.6,8.5-6.1,11c5.3,2.1,8.8,6,8.8,12.4c0,10.8-7.8,16.6-22,16.6H375.6
			L375.6,120.5z"/>
	</g>
</g>
</svg>
