<?xml version="1.0" encoding="utf-8"?>
<!-- Generator: Adobe Illustrator 25.3.1, SVG Export Plug-In . SVG Version: 6.00 Build 0)  -->
<svg version="1.1" id="Layer_1" xmlns="http://www.w3.org/2000/svg" xmlns:xlink="http://www.w3.org/1999/xlink" x="0px" y="0px"
	 viewBox="0 0 500 500" style="enable-background:new 0 0 500 500;" xml:space="preserve">
<style type="text/css">
	.st0{fill:#BAC4E0;}
	.st1{fill:#FFFFFF;}
</style>
<g>
	
		<ellipse transform="matrix(0.7071 -0.7071 0.7071 0.7071 -103.5534 249.9999)" class="st0" cx="250" cy="250" rx="241.2" ry="241.2"/>
	<ellipse class="st1" cx="250" cy="219.2" rx="93.8" ry="129.9"/>
	<path class="st1" d="M248.5,340.8c-78.5,0-148.7,18.8-195.4,48.4c43.7,61.7,115.6,102,196.9,102c80.8,0,152.2-39.7,196-100.7
		C399.3,360.2,328.2,340.8,248.5,340.8z"/>
	<path class="st1" d="M290.5,403.2h-81c-5.3,0-9.6-4.3-9.6-9.6V259.6c0-5.3,4.3-9.6,9.6-9.6h81c5.3,0,9.6,4.3,9.6,9.6v133.9
		C300.1,398.8,295.8,403.2,290.5,403.2z"/>
	<path class="st1" d="M171,226.5c2.8,20.8-1.8,38.9-10.3,40.3c-8.5,1.4-17.7-14.3-20.5-35.1c-2.8-20.8,1.8-38.9,10.3-40.3
		C159,190,168.2,205.7,171,226.5z"/>
	<path class="st1" d="M329,226.5c-2.8,20.8,1.8,38.9,10.3,40.3c8.5,1.4,17.7-14.3,20.5-35.1c2.8-20.8-1.8-38.9-10.3-40.3
		C341,190,331.8,205.7,329,226.5z"/>
	<path class="st1" d="M159.5,214c-3.2-20.8-6.3-41.6-9.5-62.4c-1.1-7.6-2.3-15.5,0.5-22.6c2.8-7.1,10.8-12.8,18-10.1
		c-2.9-14.5,13.1-25.2,27.1-30c23.4-8,48.4-12.1,73-9c24.5,3.2,48.5,14,65,32.4c5.2,5.8,9.7,12.4,12.2,19.8
		c4.8,14.3,1.7,29.8-1.3,44.6c-2.5,11.7-4.9,23.4-7.4,35.1c-0.6,2.7-1.2,5.5-3,7.5c-2.9,3.2-7.8,3.5-12.2,3.5
		c-46.5,0.1-93,0.2-139.6,0.3c-8.7,0-20.2-2.1-21.3-10.8"/>
</g>
</svg>
